<svg id="visual" viewBox="0 0 900 600" width="900" height="600" xmlns="http://www.w3.org/2000/svg" xmlns:xlink="http://www.w3.org/1999/xlink" version="1.1"><rect x="0" y="0" width="900" height="600" fill="#fcf6f8"></rect><g transform="translate(857.6464831861626 473.5841083285003)"><path d="M266.7 -368.6C283.1 -355.3 190.6 -193.6 258.8 -64.9C326.9 63.7 555.8 159.3 611.4 263.8C667.1 368.2 549.6 481.4 418.8 541.1C288 600.8 144 606.9 -6.7 616C-157.3 625.2 -314.7 637.4 -357 549C-399.3 460.6 -326.6 271.6 -360.2 126.8C-393.7 -17.9 -533.5 -118.4 -540.6 -200.1C-547.6 -281.8 -421.9 -344.8 -309.7 -327C-197.5 -309.2 -98.7 -210.6 13.2 -228.8C125.2 -247 250.4 -382 266.7 -368.6" fill="#ff9914"></path></g></svg>