<svg width="100" height="100" viewBox="0 0 20 30" fill="none" xmlns="http://www.w3.org/2000/svg">
<path d="M5.00012 30C7.71755 30 9.923 27.76 9.923 25V20H5.00012C2.28269 20 0.07724 22.24 0.07724 25C0.07724 27.76 2.28269 30 5.00012 30Z" fill="#0ACF83"/>
<path d="M0.07724 14.9999C0.07724 12.2399 2.28269 9.99994 5.00012 9.99994H9.923V19.9999H5.00012C2.28269 19.9999 0.07724 17.7599 0.07724 14.9999Z" fill="#A259FF"/>
<path d="M0.0766754 4.99999C0.0766754 2.24 2.28213 0 4.99956 0H9.92244V9.99998H4.99956C2.28213 9.99998 0.0766754 7.75999 0.0766754 4.99999Z" fill="#F24E1E"/>
<path d="M9.92329 0H14.8462C17.5636 0 19.7691 2.24 19.7691 4.99999C19.7691 7.75999 17.5636 9.99998 14.8462 9.99998H9.92329V0Z" fill="#FF7262"/>
<path d="M19.7691 14.9999C19.7691 17.7599 17.5636 19.9999 14.8462 19.9999C12.1287 19.9999 9.92329 17.7599 9.92329 14.9999C9.92329 12.2399 12.1287 9.99994 14.8462 9.99994C17.5636 9.99994 19.7691 12.2399 19.7691 14.9999Z" fill="#1ABCFE"/>
</svg>
