<svg width="100" height="100" viewBox="0 0 31 30" fill="none" xmlns="http://www.w3.org/2000/svg">
<path d="M0.757401 0H30.7574V30H0.757401V0Z" fill="#F7DF1E"/>
<path d="M8.64556 25.0701L10.9414 23.6807C11.3843 24.466 11.7872 25.1304 12.7536 25.1304C13.68 25.1304 14.264 24.7681 14.264 23.3585V13.7728H17.0833V23.3984C17.0833 26.3184 15.3717 27.6475 12.8745 27.6475C10.6192 27.6475 9.31003 26.4794 8.64551 25.0699" fill="black"/>
<path d="M18.6145 24.7681L20.91 23.439C21.5143 24.4259 22.2997 25.1508 23.6891 25.1508C24.8573 25.1508 25.6022 24.5667 25.6022 23.7612C25.6022 22.7946 24.837 22.4522 23.5481 21.8885L22.8435 21.5862C20.8095 20.7205 19.4602 19.6331 19.4602 17.3373C19.4602 15.2228 21.0712 13.6117 23.5885 13.6117C25.3808 13.6117 26.6696 14.2361 27.5958 15.8672L25.4008 17.2768C24.9175 16.411 24.394 16.0687 23.5886 16.0687C22.7629 16.0687 22.2393 16.5922 22.2393 17.2768C22.2393 18.1226 22.7629 18.4651 23.971 18.9887L24.6758 19.2907C27.0722 20.3178 28.4215 21.3649 28.4215 23.7209C28.4215 26.2584 26.4279 27.6478 23.7496 27.6478C21.1317 27.6478 19.4401 26.3993 18.6146 24.7681" fill="black"/>
</svg>
